# xmcd CD database file
#
# Track frame offsets:
#	150
#	14315
#	27057
#	43700
#	56365
#	68177
#	83957
#	97147
#	112972
#	124862
#	137517
#	152985
#
# Disc length: 2217 seconds
#
# Revision: 0
# Processed by: cddbd v1.5.2PL0 Copyright (c) Steve Scherf et al.
# Submitted via: CDex 1.70beta2
#
DISCID=9a08a70c
DTITLE=Varios - 1 - Grandes Classicos da Musica Sertaneja
DYEAR=2009
DGENRE=Country
TTITLE0=01 - Saudade de Minha Terra
TTITLE1=02 - Pe de Cedro
TTITLE2=03 - Rei do Cafe
TTITLE3=04 - Casa Vazia
TTITLE4=05 - Destinos Iguais
TTITLE5=06 - Lembrancas
TTITLE6=07 - Pingo DAgua
TTITLE7=08 - Paineira Velha
TTITLE8=09 - Casinha Pequenina
TTITLE9=10 - Passos da Vida
TTITLE10=11 - Terra Florida
TTITLE11=12 - Catarina
EXTD=YEAR: 2009
EXTT0=
EXTT1=
EXTT2=
EXTT3=
EXTT4=
EXTT5=
EXTT6=
EXTT7=
EXTT8=
EXTT9=
EXTT10=
EXTT11=
PLAYORDER=
